<svg width="32" height="21" viewBox="0 0 32 21" fill="none" xmlns="http://www.w3.org/2000/svg">
<path d="M10.23 0C4.58794 0 0 4.58794 0 10.23C0 15.8721 4.58794 20.46 10.23 20.46C15.8721 20.46 20.46 15.8721 20.46 10.23C20.46 4.58794 15.8721 0 10.23 0ZM15.84 5.94C16.0088 5.94 16.1776 6.00433 16.3066 6.13336C16.5647 6.39142 16.5647 6.80858 16.3066 7.06664L8.38664 14.9866C8.25794 15.1153 8.08896 15.18 7.92 15.18C7.75104 15.18 7.58206 15.1153 7.45336 14.9866L4.15336 11.6866C3.8953 11.4286 3.8953 11.0114 4.15336 10.7534C4.41142 10.4953 4.82858 10.4953 5.08664 10.7534L7.92 13.5867L15.3734 6.13336C15.5024 6.00433 15.6712 5.94 15.84 5.94ZM23.76 9.9C23.585 9.9 23.4171 9.96953 23.2933 10.0933C23.1695 10.2171 23.1 10.385 23.1 10.56C23.1 10.735 23.1695 10.9029 23.2933 11.0267C23.4171 11.1505 23.585 11.22 23.76 11.22H31.68V9.9H23.76Z" fill="url(#paint0_linear_177_1846)"/>
<defs>
<linearGradient id="paint0_linear_177_1846" x1="35.7415" y1="5.85103e-07" x2="13.5958" y2="30.3799" gradientUnits="userSpaceOnUse">
<stop offset="0.25" stop-color="#3B768F"/>
<stop offset="0.536458" stop-color="#3EC6FF"/>
<stop offset="0.817708" stop-color="#3B768F"/>
</linearGradient>
</defs>
</svg>
